# xmcd
#
# Track frame offsets: 
#        150
#        15788
#        40650
#        58650
#        76575
#        90525
#        106050
#        125588
#        147225
#        161550
#
# Disc length: 2407 seconds
#
# Revision: 2
# Processed by: cddbd v1.5.2PL0 Copyright (c) Steve Scherf et al.
# Submitted via: ExactAudioCopy v1.0b1
#
DISCID=6a09650a
DTITLE=Clarence ''Gatemouth'' Brown - One More Mile
DYEAR=1900
DGENRE=Electric Blues - Texas Blues
TTITLE0=Information Blues
TTITLE1=Song For Renee
TTITLE2=Stranded
TTITLE3=Sunrise Cajun Style
TTITLE4=Big Yard
TTITLE5=Ain't That Dandy
TTITLE6=One More Mile
TTITLE7=I Wonder
TTITLE8=Flippin' Out
TTITLE9=Near Baku
EXTD=
EXTT0=
EXTT1=
EXTT2=
EXTT3=
EXTT4=
EXTT5=
EXTT6=
EXTT7=
EXTT8=
EXTT9=
PLAYORDER=
